<mxfile host="65bd71144e">
    <diagram id="jcCRH-zhBtdEb6dszUsu" name="Page-1">
        <mxGraphModel dx="6735" dy="4230" grid="1" gridSize="10" guides="1" tooltips="1" connect="1" arrows="1" fold="1" page="1" pageScale="1" pageWidth="700" pageHeight="700" math="0" shadow="0">
            <root>
                <mxCell id="0"/>
                <mxCell id="1" parent="0"/>
                <mxCell id="32" value="" style="curved=1;endArrow=classic;html=1;strokeWidth=6;fontSize=10;fillColor=#dae8fc;shape=flexArrow;width=600;endSize=95;endWidth=80;strokeColor=#6c8ebf;" edge="1" parent="1">
                    <mxGeometry x="-0.3333" width="50" height="50" relative="1" as="geometry">
                        <mxPoint x="170" y="50" as="sourcePoint"/>
                        <mxPoint x="1550" y="50" as="targetPoint"/>
                        <Array as="points">
                            <mxPoint x="220" y="50"/>
                            <mxPoint x="250" y="50"/>
                            <mxPoint x="270" y="50"/>
                        </Array>
                        <mxPoint as="offset"/>
                    </mxGeometry>
                </mxCell>
                <mxCell id="33" value="" style="curved=1;endArrow=classic;html=1;strokeWidth=6;fontSize=10;fillColor=#f5f5f5;shape=flexArrow;width=600;endSize=95;endWidth=80;strokeColor=#666666;" edge="1" parent="1">
                    <mxGeometry width="50" height="50" relative="1" as="geometry">
                        <mxPoint x="1550" y="40" as="sourcePoint"/>
                        <mxPoint x="2500" y="770" as="targetPoint"/>
                        <Array as="points">
                            <mxPoint x="1600" y="40"/>
                            <mxPoint x="2500" y="40"/>
                        </Array>
                    </mxGeometry>
                </mxCell>
                <mxCell id="34" value="" style="curved=1;endArrow=classic;html=1;strokeWidth=6;fontSize=10;fillColor=#f5f5f5;shape=flexArrow;width=600;endSize=95;endWidth=80;strokeColor=#666666;" edge="1" parent="1">
                    <mxGeometry x="-0.3333" width="50" height="50" relative="1" as="geometry">
                        <mxPoint x="2810" y="1100" as="sourcePoint"/>
                        <mxPoint x="1430" y="1100" as="targetPoint"/>
                        <Array as="points">
                            <mxPoint x="2760" y="1100"/>
                            <mxPoint x="2730" y="1100"/>
                            <mxPoint x="2710" y="1100"/>
                        </Array>
                        <mxPoint as="offset"/>
                    </mxGeometry>
                </mxCell>
                <mxCell id="35" value="" style="curved=1;endArrow=classic;html=1;strokeWidth=6;fontSize=10;fillColor=#f5f5f5;shape=flexArrow;width=600;endSize=95;endWidth=80;strokeColor=#666666;" edge="1" parent="1">
                    <mxGeometry width="50" height="50" relative="1" as="geometry">
                        <mxPoint x="1430" y="1110" as="sourcePoint"/>
                        <mxPoint x="480" y="1840" as="targetPoint"/>
                        <Array as="points">
                            <mxPoint x="1380" y="1110"/>
                            <mxPoint x="480" y="1110"/>
                        </Array>
                    </mxGeometry>
                </mxCell>
                <mxCell id="26" value="" style="rounded=0;whiteSpace=wrap;html=1;labelBackgroundColor=none;fontSize=10;fillColor=#f5f5f5;fontColor=#333333;strokeColor=#666666;strokeWidth=5;" vertex="1" parent="1">
                    <mxGeometry x="160" y="1840" width="1240" height="620" as="geometry"/>
                </mxCell>
                <mxCell id="12" value="Erstellung&lt;br style=&quot;font-size: 72px;&quot;&gt;Evaluierungsdatensatz" style="edgeLabel;html=1;align=center;verticalAlign=middle;resizable=0;points=[];labelBackgroundColor=none;fontSize=72;fontStyle=1" vertex="1" connectable="0" parent="1">
                    <mxGeometry x="960" y="1120" as="geometry"/>
                </mxCell>
                <mxCell id="13" value="Evaluierung" style="edgeLabel;html=1;align=center;verticalAlign=middle;resizable=0;points=[];labelBackgroundColor=none;fontSize=72;fontStyle=1" vertex="1" connectable="0" parent="1">
                    <mxGeometry x="780" y="2150" as="geometry"/>
                </mxCell>
                <mxCell id="24" value="Datenkuration" style="edgeLabel;html=1;align=center;verticalAlign=middle;resizable=0;points=[];labelBackgroundColor=none;fontSize=72;fontStyle=1" vertex="1" connectable="0" parent="1">
                    <mxGeometry x="2020" y="50" as="geometry">
                        <mxPoint x="1" y="1" as="offset"/>
                    </mxGeometry>
                </mxCell>
                <mxCell id="27" value="Auswahl Sprachmodell" style="edgeLabel;html=1;align=center;verticalAlign=middle;resizable=0;points=[];labelBackgroundColor=none;fontSize=72;fontStyle=1" vertex="1" connectable="0" parent="1">
                    <mxGeometry x="690" y="50" as="geometry"/>
                </mxCell>
                <mxCell id="29" value="Training" style="edgeLabel;html=1;align=center;verticalAlign=middle;resizable=0;points=[];labelBackgroundColor=none;fontSize=72;fontStyle=1" vertex="1" connectable="0" parent="1">
                    <mxGeometry x="2450" y="1120" as="geometry">
                        <mxPoint x="7" y="-9" as="offset"/>
                    </mxGeometry>
                </mxCell>
            </root>
        </mxGraphModel>
    </diagram>
</mxfile>